<?xml version="1.0" encoding="UTF-8"?>
<svg version="1.1" viewBox="0 0 2048 2048" width="512" height="512" xmlns="http://www.w3.org/2000/svg">
<path transform="translate(575,189)" d="m0 0h886l32 1 25 3 26 6 28 10 16 8 19 10 20 14 15 13 8 7 14 14 9 11 13 18 12 21 9 20 10 30 5 23 4 28 1 22v181l-1 49-4 32-6 27-8 24-9 20-10 18-11 16-11 13-7 8-13 13-11 9-13 10-19 12-25 13-26 10-17 5-22 5-21 3-11 1-31 1-316 1-14 2-12 5-8 6-9 9-12 19-8 11-11 11-14 8-15 4h-18l-13-4-11-6-10-9-7-8-11-17-10-14-8-7-12-6-10-3-7-1-22-1-323-1-26-2-22-4-24-6-20-7-24-11-16-9-12-8-16-12-14-12-16-16-11-14-12-17-10-18-10-21-10-30-5-23-3-22-2-25v-229l3-31 5-25 7-23 9-21 10-19 8-12 12-16 11-13 19-19 14-11 14-10 24-14 22-10 28-9 22-5 23-3zm-15 26-28 3-27 6-21 7-20 9-19 11-14 10-11 9-13 12-13 14-7 9-7 10-9 14-11 23-9 27-5 24-2 14-1 13v237l3 29 5 25 7 23 8 18 11 21 11 16 9 11 12 13 8 8 11 9 18 13 21 12 13 6 24 9 21 6 24 4 21 2 346 1 18 2 15 5 10 6 10 9 8 9 10 16 8 12 6 7 9 6 9 3h10l11-4 9-7 8-10 14-22 11-12 12-9 13-6 11-3 20-2 343-1 25-3 27-6 21-7 25-11 16-9 12-8 17-13 17-16 11-12 12-17 9-15 11-23 8-24 5-25 3-23 1-31v-195l-1-28-3-23-6-26-7-21-11-23-12-20-11-14-11-13-10-10-11-9-17-13-20-12-16-8-25-9-19-5-25-4-11-1z" fill="#FE8900"/>
<path transform="translate(903,1046)" d="m0 0h28l14 3 12 4 14 7 13 9 9 9 9 14 5 15 1 11v625l-1 16-4 15-7 13-10 13-9 9-8 6-14 7-13 4-13 2h-20l-15-3-13-5-14-8-11-10-7-10-3-1-12 5-11 3-16 1-17-2-16-6-12-7-11-9-9-9-7-10-8-16-4-13-1-12-18-2-17-5-17-8-14-10-11-11-9-13-8-16-6-20-1-14v-14l2-16-4-2-10-8-13-13-12-18-6-13-5-15-3-15v-35l6-25 7-18 8-13 11-14 7-9-1-22v-26l4-22 6-18 9-17 13-17 11-11 19-14 13-7v-23l5-21 6-15 9-14 11-12 7-7 14-9 14-7 16-5 11-2 23-1 8-10 10-14 14-15 14-11 14-9 15-7 17-5zm10 26-16 2-17 5-14 7-12 9-10 9-7 7-10 13-12 18-3 3-35 1-21 6-13 7-10 8-7 7-8 13-5 10-3 10-1 7v35l-4 4-22 11-10 7-13 11-9 11-8 13-7 21-2 10-1 14v10l3 31-1 6-7 8-9 9-9 13-8 16-4 13-3 14v28l4 19 5 13 6 11 9 11 13 11 14 9 4 4-2 11-3 22 1 14 4 15 8 16 9 12 10 9 11 7 13 6 15 3 24 2 4 2 2 16 2 12 6 15 7 11 8 9 14 9 13 5 11 2h9l10-2 14-7 12-10 7-1 6 9 10 19 7 7 11 7 10 4 5 1h24l15-5 12-8 10-10 6-10 3-9v-266l-7-9-7-7-13-8-32-13-14-8-8-8-8-13-6-17-6-19-7-14-9-8-10-5-9-3h-15l-13 1h-19l-14-3-14-7-11-10-7-11-5-12-2-10v-12l3-12 3-5 9-5h2l1 4 2 23 4 11 6 10 9 9 12 6 4 1h23l8-1h19l12 3 14 7 10 8 8 9 7 12 5 15 6 20 7 12 9 8 13 6 17 6 16 8 7 4v-350l-5-10-7-8-10-7-10-5-16-4z" fill="#04DEFB"/>
<path transform="translate(1117,1051)" d="m0 0h12l25 2 16 4 15 6 19 10 14 10 13 12 12 12 9 11 4 3 25 5 20 6 17 9 14 11 11 11 11 16 6 12 6 20 2 14v18l19 10 16 12 12 12 10 14 8 16 6 18 3 17v31l-2 14v10l9 10 10 15 7 15 5 17 2 11 1 25-2 18-4 15-7 17-8 13-10 13-9 9-8 7-6 5h-2l1 8v24l-2 14-5 16-8 16-8 11-3 4h-2l-2 4-12 10-15 9-14 6-18 5-7 2-4 17-7 16-10 14-4 5-8 7-9 7-16 9-15 5-14 3-11 1-23 1-9 8-15 9-16 6-11 3-7 1h-26l-17-3-15-6-15-9-12-11-10-13-6-13-3-13v-655l4-12 6-10 8-10 13-10 12-6 14-4zm8 25-18 2-15 4-11 7-9 9-4 8v351l14-8 12-5 16-3 15-3 12-6 8-9 6-16 7-24 5-12 7-10 8-9 10-7 12-5 11-3 22-1 16-3 14-7 9-9 5-9 3-13 1-19 5-5 4 1 4 5 4 8 2 13-1 13-5 14-8 11-9 9-11 7-16 5-15 2-21 2-11 4-8 6-6 5-7 11-5 16-6 21-8 16-5 6v2l-4 2-8 5-9 4-25 6-15 4-12 6-10 9-5 9-2 9v256l4 14 7 9 10 9 12 7 15 5 6 1h20l17-4 12-5 12-8 10-9 4-1h21l14-1 15-4 16-7 12-9 9-9 8-13 4-10 2-9 2-19 23-3 15-4 16-8 9-6 12-11 9-13 6-12 4-16v-24l-3-15v-6l6-5 11-8 14-12 9-10 9-15 6-18 2-10v-33l-4-15-6-15-8-12-9-11-8-10v-8l3-14 2-18v-12l-2-16-5-16-8-16-6-8-9-10-13-10-27-13-5-5v-27l-2-15-5-16-6-11-9-11-8-8-11-7-14-7-18-5-25-4-8-7-10-11-9-11-9-9-13-10-13-8-13-6-16-5-21-3z" fill="#FE8900"/>
<path transform="translate(942,1049)" d="m0 0 10 2 12 5 16 10 10 9 8 10 6 12 3 10 1 11v625l-1 16-4 15-7 13-10 13-9 9-8 6-7 4-3-1-3-6 1-6-1-7-2-4 2-5 8-7 7-8 5-11 1-4v-266l-7-9-10-9-14-7-27-11-14-8-9-9-8-13-6-17-6-19-7-14-8-7-10-5-9-3h-15l-13 1h-19l-14-3-14-7-12-11-7-11-5-12-2-10v-12l3-12 4-6 9-5 3 1 1 4 2 23 4 11 6 10 8 8 12 6 4 1h23l8-1h19l12 3 14 7 10 8 7 7 8 13 5 13 7 24 7 12 8 7 13 6 17 6 16 8 6 4v-349l-5-10-6-7-8-6-5-5-6-4-3-8-1-10 1-6z" fill="#FCBE00"/>
<path transform="translate(721,315)" d="m0 0 45 1 3 8 12 45 8 29 11 43 2 7 14-57 16-64 3-11 44-1 1 4-6 20-12 43-15 53-18 65-5 18-2 2h-40l-3-6-8-29-20-72-8-31v-4h-2l-1 8-10 40-12 44-13 48-2 2h-43l-5-15-10-36-32-113-10-36v-4h44l6 21 15 59 10 37 4 17 1 1 10-40 14-50 12-43z" fill="#FCBD00"/>
<path transform="translate(1325,1150)" d="m0 0 7 2 11 11 11 16 6 12 6 20 2 14v18l19 10 16 12 12 12 10 14 8 16 6 18 3 17v31l-2 14v10l9 10 10 15 7 15 5 17 2 11 1 25-2 18-4 15-7 17-8 13-10 13-9 9-8 7-6 5h-2l1 8v24l-2 14-5 16-8 16-8 11-3 4h-2l-2 4-12 10-15 9-14 6-18 5-7 2-4 17-7 16-10 14-4 5-8 7-9 7-16 9-15 5-14 3-11 1-23 1-9 8-15 9-16 6-11 3-7 1h-26l-6-5 2-11v-6l4-4h24l17-4 12-5 12-8 10-9 4-1h21l14-1 15-4 16-7 12-9 8-8 8-13 4-10 2-9 2-17 3-3 25-4 16-5 16-9 11-9 8-9 9-15 4-12 2-9v-24l-3-15v-6l7-6 11-8 14-12 8-9 9-15 6-18 2-10v-33l-4-15-6-15-8-12-9-11-8-10v-8l3-14 2-18v-12l-2-16-5-16-8-16-6-8-8-9-13-10-27-13-5-4-1-2v-27l-2-15-5-16-6-11-9-11-10-10h2l1-7 3-3 4-1z" fill="#FE53A3"/>
<path transform="translate(1176,578)" d="m0 0h37l4 5 17 28 39 63 14 22 11 19 2 3v-140h41l1 1v203l-1 1-42 1-6-2-14-22-12-20-11-17-12-20-15-24-13-22v126h-40z" fill="#FCBE00"/>
<path transform="translate(1278,316)" d="m0 0h86l18 2 16 5 15 8 10 8 7 7 9 13 7 15 5 21 1 8v26l-2 16-4 14-5 13-8 13-9 10-11 9-10 6-16 6-14 3-10 1-27 1h-54l-4-1zm43 35-2 1v132h31l17-2 15-5 10-7 7-7 6-11 4-14 1-5v-26l-4-18-8-16-8-8-13-8-14-4-6-1z" fill="#FCBD00"/>
<path transform="translate(967,314)" d="m0 0h31l21 5 16 8 12 9 8 7 9 12 8 14 7 21 3 16v24l-3 17-5 17-8 16-9 12-14 14-13 8-15 6-12 3-7 1h-29l-15-3-16-6-15-9-13-12-9-12-8-16-5-17-2-13v-28l3-20 5-17 9-17 8-10 11-11 14-9 14-6 12-3zm12 37-11 1-13 5-11 9-7 8-7 14-4 16v31l4 16 7 14 9 10 11 7 11 4 5 1h18l13-4 11-6 9-8 8-12 5-14 3-18-1-16-3-16-5-12-6-9-5-6-11-8-11-5-16-2z" fill="#FCBD00"/>
<path transform="translate(1453,574)" d="m0 0h18l14 2 16 5 11 6 9 7 8 8 7 10 2 4-1 4-21 13-9 5-5-1-9-12-10-7-13-5-15-1-12 2-12 6-10 9-7 11-5 13-2 10v31l4 17 8 16 5 6 12 8 12 4h24l13-5 9-7 7-9 4-13 4-14h-50l-1-1v-32h92v36l-3 22-5 15-8 14-9 10-9 8-12 7-21 7-16 2h-19l-16-2-12-4-14-7-13-10-9-10-8-13-6-15-4-16-2-13v-28l3-20 5-16 8-16 7-9 9-10 14-10 15-7 17-4z" fill="#FCBD00"/>
<path transform="translate(1108,316)" d="m0 0h84l15 2 11 4 10 6 10 9 7 9 5 12 3 15v13l-2 13-6 15-8 11-9 8-10 5h-3l9 17 12 22 15 28 6 12v3l-40 1-6-1-10-18-26-52-2-5h-24v74l-1 1h-40zm41 35-1 4v55l1 1h26l14-1 8-3 9-8 4-10v-16l-4-10-7-6-8-3-12-2z" fill="#FCBE00"/>
<path transform="translate(927,578)" d="m0 0h82l14 2 12 4 10 5 10 9 6 8 5 10 4 14v21l-3 14-4 10-8 10-9 8-11 6h-2l6 11 13 24 14 27 10 19v3l-43 1-3-3-10-19-11-23-12-24-3-7-3-1-23-1v77h-41zm41 35v59h27l14-2 8-4 5-4 4-8 2-9v-9l-4-11-5-6-9-4-4-1-20-1z" fill="#FCBD00"/>
<path transform="translate(717,578)" d="m0 0h47l4 9 14 45 17 55 11 33 12 39 7 22-1 2h-43l-4-9-7-24-5-18-1-2h-58l-3 8-10 34-4 10-1 1h-43l3-9 17-52 14-43 12-36 13-40 6-18zm21 53-5 19-9 31-4 12v3h39l-3-10-14-47-1-7z" fill="#FCBD00"/>
<path transform="translate(511,578)" d="m0 0h75l21 3 11 4 11 6 7 6 9 12 5 12 2 9 1 19-1 14-5 15-5 9-8 9-10 7-11 5-10 3-8 1-19 1h-12l-12-1v70l-1 1h-40l-1-204zm41 36v64h22l14-1 12-5 7-6 4-9 1-4v-15l-3-10-7-8-8-4-7-2z" fill="#FBBD00"/>
<path transform="translate(1094,578)" d="m0 0h41l1 1v204h-42z" fill="#FCBE00"/>
<path transform="translate(848,578)" d="m0 0h41l1 2v203h-42z" fill="#FBBE00"/>
<path transform="translate(692,1367)" d="m0 0h3l2 5 3 21 4 11 6 10 5 5 8 6 9 4 4 1h19l14-2h19l14 4 12 7 7 6 9 12 12 23 8 11 9 8 13 7 15 5 3 3-1 7-6 7-4 2-13-1-12-4-13-7-12-11-7-10-10-18-8-14-7-7-9-4-4-1h-15l-18 3h-14l-16-4-14-7-8-6-7-8-7-11-5-13-2-18 3-10 6-8z" fill="#04DEFB"/>
<path transform="translate(1357,1377)" d="m0 0 5 2 6 8 2 6v16l-5 13-6 10-9 10-14 9-17 5-15 1-31-5h-7l-14 4-8 5-7 7-7 11-9 14-8 11-12 12-13 8-11 4-8 2h-7l-6-5-2-4v-8l5-4 16-6 11-7 7-6 7-10 14-24 9-11 14-10 13-5 13-3h16l25 5h8l15-5 9-6 9-10 6-12 4-17z" fill="#FE53A3"/>
<path transform="translate(942,1049)" d="m0 0 10 2 12 5 16 10 10 9 8 10 6 12 3 10v72l-1 43-5 30-5 18-4 6-5 2-6 1-1 14h-1l-1-27-1-159-5-10-6-7-8-6-5-5-6-4-3-8-1-10 1-6z" fill="#BED739"/>
<path transform="translate(890,1130)" d="m0 0h10l5 4 1 2v9l-5 6-11 7-10 9-8 13-5 16v19l6 15 6 7 33 22 10 8 7 8 3 7v7l-7 8-7-1-9-7-11-10-17-11-19-12-7-3-5-1-14 1-5 1h-9l-5-6-1-2v-8l5-6 13-4 7-1-1-8v-19l3-17 5-13 7-12 11-13 9-8 12-6z" fill="#0BF6E8"/>
<path transform="translate(1052,1086)" d="m0 0h6l5 5 4 1 1 3-4 8-1 9v163l-1 35v15l-2 19-1 20-1 13-1 12-1 2-4 1-3 7h-2v-5h-2l-1-6-1-19-1-75v-38l-1-155 5-12z" fill="#FCBE00"/>
<path transform="translate(757,1275)" d="m0 0 3 1 1 4 2 23 4 11 6 10 8 8 12 6 4 1h23l8-1h19l12 3 14 7 10 8 7 7 8 13 5 13 7 25h-2l-3-5-3-10-3-5v-2h-7l-4 4-2 4-1 18-2-4-7-22-7-14-8-7-10-5-9-3h-15l-13 1h-19l-14-3-14-7-12-11-7-11-5-12-2-10v-12l3-12 4-6z" fill="#04DEFB"/>
<path transform="translate(1155,1156)" d="m0 0h7l12 7 11 10 9 14 5 12 4 16v16l-3 16-5 12-9 13-12 11-36 24-7 2-6-4-4-10 3-7 9-8 17-12 11-9 7-7 5-9 3-8 1-5v-15l-4-13-7-11-5-6-10-8-3-3-1-7 2-6z" fill="#FE8900"/>
<path transform="translate(1360,1512)" d="m0 0 5 1 4 5 1 3v18l-4 12-8 12-8 8-13 8-13 4-7 1h-16l-16-4-18-6-10-2-11 1-15 5h-4l-3-6 1-7 6-7 12-6 6-2h21l19 5 14 4h16l11-4 9-6 7-8 7-14 6-14z" fill="#FE53A4"/>
<path transform="translate(688,1511)" d="m0 0 4 2 10 23 8 11 11 7 10 4 5 1h11l27-7 5-1h12l13 4 7 6 5 10v6l-10-1-15-2h-11l-18 7-16 3h-11l-12-2-13-5-11-8-8-8-8-14-4-11v-13l4-8z" fill="#04DEFB"/>
<path transform="translate(1151,1586)" d="m0 0 4 1 8 22 6 9 7 7 8 5 9 3h18l5-1h16l11 4 8 8 3 5v11l-1 2-6-1-8-4-6-2h-13l-15 3h-13l-12-3-12-5-11-8-8-9-5-8-5-14v-11l3-6 7-7z" fill="#FE53A3"/>
<path transform="translate(907,1585)" d="m0 0 5 1 5 7 2 6v9l-4 13-9 14-8 8-13 8-15 5-9 2-18-2-14-1-20 4h-6l-1-2 1-9 8-9 9-5 6-2h35l11-3 8-4 10-9 7-11 3-6 3-9z" fill="#04DEFB"/>
<path transform="translate(903,1046)" d="m0 0h28l10 2 4 3-1 7 2 12 2 5 10 7-2 1-10-5-16-4-17-1-16 2-17 5-10 3-9 5-8 5-6 1-4 1-6-1v-5l8-11 3-5h2l2-4 13-9 8-5 4-2 3-2 16-4z" fill="#0CF6E7"/>
<path transform="translate(1286,1270)" d="m0 0 4 1 5 6 4 8 2 13-1 13-5 14-8 11-10 10-11 7-16 5-6 1h-8l-5-3 1-8-2-5v-5l4-3 15-3 14-7 8-8 5-9 3-13 1-19 4-5z" fill="#FE53A2"/>
<path transform="translate(892,1391)" d="m0 0 7 1 3 6 3 7 3 9 3 1 7 11 7 6 13 6 17 6 2 1v2h2l-1 5 4 2v12l-4 4h-2v2l-5-1-32-13-14-8-9-9-8-13-3-8v-20l5-8z" fill="#BDD73A"/>
<path transform="translate(1210,1713)" d="m0 0 3 2 1 7v9l-6 10-8 8-10 6-13 4h-17l-12-3-9-5-9-8-4-7v-5l4-3h8l22 6 6 1h9l16-6 9-7 8-8z" fill="#FF53A4"/>
<path transform="translate(844,1346)" d="m0 0h15l9 3 8 5h5l9 9 8 13 5 13 7 25h-2l-3-5-3-10-3-5v-2h-7l-4 4-2 4-1 18-2-4-7-22-7-14-8-7-10-5-5-2-5-10-1-4z" fill="#0BF6E8"/>
<path transform="translate(980,1747)" d="m0 0 2 4 7 1 7 5 5 13-1 7-3 6-3 7-9 11-8 8-8 6-7 4-3-1-3-6 1-6-1-7-2-4 2-5 8-7 7-8 5-11 2-12h2z" fill="#BCD73B"/>
<path transform="translate(1007,1118)" d="m0 0h1v625l-1 13h-1l-1-53v-104l1-420z" fill="#FDA200"/>
<path transform="translate(822,1474)" d="m0 0 3 3 10 4 4 6 2 4 3 1 3 5 6 3 3 3 5 2v2l6 1 13 4 2 2v7l-2 3-7 3-5-3h-4l-6-4-7-3-7-4-3-2v-2h-2v-2l-4-1-8-10-5-10-1-10z" fill="#0CF7E8"/>
<path transform="translate(1094,578)" d="m0 0h41l1 1v204l-4-1h2l-1-202h-37l1 203h-3z" fill="#FF8900"/>
<path transform="translate(848,578)" d="m0 0h41l1 2v196h-2v-196l-38 1v202h-2z" fill="#FC9001"/>
<path transform="translate(1300,578)" d="m0 0h41l1 1v203l-1 1-42 1-5-1v-2l46 1v-202l-36 1-2 14v116l-2 3z" fill="#FE8900"/>
<path transform="translate(955,1791)" d="m0 0 1 3v4l2 3v7l-1 4 3 6v2l-18 6-11-1-3-5-1-9 4-6 8-4v-2l9-4z" fill="#0BF6E8"/>
<path transform="translate(842,1224)" d="m0 0h1v18l4 2 5 2 6 7-15-1-12 2h-9l-5-6-1-2v-8l5-6 13-4 7-1z" fill="#04DEFB"/>
<path transform="translate(1006,1460)" d="m0 0h2v283l-1 13h-1l-1-53v-104z" fill="#FF8900"/>
<path transform="translate(977,1492)" d="m0 0 3 3 1 94v27l-1 136h-2z" fill="#FF8900"/>
<path transform="translate(1278,316)" d="m0 0h86l18 2 6 2-3 1-5-1-19-1-8-1-73-1v203h-2z" fill="#FF8900"/>
<path transform="translate(1176,578)" d="m0 0h37l1 2-35 1-1 5v196h32v1h-34z" fill="#FF8900"/>
<path transform="translate(1108,316)" d="m0 0h80v2h-78v162l1 36 3 2-1 2h-5z" fill="#FF8900"/>
<path transform="translate(978,1266)" d="m0 0h1l1 30v163l-5-2 2-1z" fill="#FF8900"/>
<path transform="translate(1007,1573)" d="m0 0h1v170l-1 13h-1l-1-53v-29l1-8z" fill="#FD9B00"/>
<path transform="translate(871,1140)" d="m0 0h2v2h-2v2h-2l-2 5-4 5h-2l-2 5-7 11-4 8-2 6-2 5v11l-1 10 1 2-1 10h-2l-1-3v-19l3-17 5-13 7-12 11-13z" fill="#04E0F9"/>
<path transform="translate(1459,664)" d="m0 0h91l-1 3h-90z" fill="#FF8900"/>
<path transform="translate(511,578)" d="m0 0h75l3 2-76 1-2 7h-1v-9z" fill="#FE8900"/>
<path transform="translate(927,578)" d="m0 0h81v2l-77 1-4 1z" fill="#FF8900"/>
<path transform="translate(1278,316)" d="m0 0h86l18 2 6 2-3 1-5-1-19-1-8-1-73-1-1 22h-1z" fill="#FF8900"/>
<path transform="translate(1442,575)" d="m0 0h11v1l-13 2-25 9-10 5-12 11-6 6-2-1 11-12 14-10 15-7z" fill="#FE8A00"/>
<path transform="translate(875,1169)" d="m0 0h2l-2 6-4 8-4 13v22l-2-2-2-5-1-7v-8l5-15 5-6z" fill="#05E1F9"/>
<path transform="translate(967,314)" d="m0 0h31l21 5 16 8 7 5-2 1-10-6-14-6-13-4-12-1h-29v-1z" fill="#FE8A00"/>
<path transform="translate(967,715)" d="m0 0h1v68h-41v-2h38l1-17v-23z" fill="#FF8900"/>
<path transform="translate(603,316)" d="m0 0h44l1 6-4-3h-39l-1 4z" fill="#FE8900"/>
<path transform="translate(1240,695)" d="m0 0 5 4 5 9 5 8 5 7 3 6 6 10 3 3 1 6-3-3-14-22-12-20-4-6z" fill="#FE8A00"/>
<path transform="translate(919,1278)" d="m0 0 6 1 2 2v8l-2 2h-6l-2-2 1-9z" fill="#BFD739"/>
<path transform="translate(721,315)" d="m0 0 45 1 2 4-1 3-5-5h-19l-23 1-1 2 1-5z" fill="#FE8B00"/>
<path transform="translate(911,1070)" d="m0 0h10l4 2-23 2-16 4-8 3-3-1 10-5 17-4z" fill="#06E4F6"/>
<path transform="translate(768,470)" d="m0 0 4 4 2 13 2 5 1 7 2 2 1 11-2-2-7-25-3-11z" fill="#FE8A00"/>
<path transform="translate(955,316)" d="m0 0h6l-3 2-15 5-16 8-8 6-2-1 10-8 16-8z" fill="#FE8B00"/>
<path transform="translate(875,315)" d="m0 0 5 1-1 5-1-4-27 1h-15l-1 5-1-4 1-3z" fill="#FE8B00"/>
<path transform="translate(867,1220)" d="m0 0 3 3 5 10 7 6 13 9-3 1-4-2v-2l-5-2-6-4-7-9z" fill="#05E2F8"/>
<path transform="translate(890,1130)" d="m0 0h10l5 4 1 2v8h-1v-6l-6-2-6-4-7 1 1-2z" fill="#04E0F9"/>
<path transform="translate(1367,481)" d="m0 0h5l-4 3-6 1h-34v-1l33-2z" fill="#FE8D00"/>
<path transform="translate(1353,316)" d="m0 0h11l18 2 6 2-3 1-5-1-19-1-8-1z" fill="#FE8F00"/>
<path transform="translate(941,470)" d="m0 0 8 6 11 6 11 4v1l-8-1-10-4-10-8z" fill="#FE8C00"/>
<path transform="translate(1021,662)" d="m0 0v3l-8 5-4 2-12 1h-11v-1l19-2 11-4z" fill="#FE8B00"/>
<path transform="translate(654,497)" d="m0 0 2 2 3 9 2 7 5 5h-6l-5-15z" fill="#FE8B00"/>
<path transform="translate(1226,672)" d="m0 0 5 5 9 14-1 4-13-21z" fill="#FE8C00"/>
<path transform="translate(911,1070)" d="m0 0h10l4 2-12 1h-11l1-2z" fill="#05E2F8"/>
<path transform="translate(1009,737)" d="m0 0 3 1 3 7 5 9v5l-3-4-8-16z" fill="#FF8900"/>
<path transform="translate(886,442)" d="m0 0 2 2 3 12 1 2v7l-2-2-4-14z" fill="#FE8C00"/>
<path transform="translate(905,489)" d="m0 0 4 2 4 5 4 3v2l4 2 2 3-4-2-10-9-4-5z" fill="#FE8B00"/>
<path transform="translate(872,1081)" d="m0 0 3 1-13 8-4 2 2-4 8-5z" fill="#05E3F7"/>
<path transform="translate(1398,595)" d="m0 0 2 1-13 13-2-1 11-12z" fill="#FDA100"/>
<path transform="translate(1384,750)" d="m0 0 5 4v2l4 2 4 6-4-2-9-10z" fill="#FF8900"/>
<path transform="translate(881,1239)" d="m0 0 7 4 7 5-3 1-4-2v-2l-5-2z" fill="#04E0FA"/>
<path transform="translate(1253,511)" d="m0 0 3 4 1 5h-12v-1h8z" fill="#FF8900"/>
<path transform="translate(1263,733)" d="m0 0h2l6 8 2 7-3-3-7-11z" fill="#FE8E00"/>
<path transform="translate(1147,513)" d="m0 0 2 4-1 3h-10l3-2 5-2z" fill="#FE8A00"/>
<path transform="translate(768,470)" d="m0 0 4 4v8l-2-1-2-7z" fill="#FE8D00"/>
</svg>
